<svg id="noun_Acorn_1582346" xmlns="http://www.w3.org/2000/svg" width="21.359" height="30.899" viewBox="0 0 21.359 30.899">
  <g id="Group_1" data-name="Group 1">
    <path id="Path_1" data-name="Path 1" d="M1.979,16.735v5.24a8.14,8.14,0,0,0,2.592,5.54C6.579,29.574,9.313,30.9,10.679,30.9s4.1-1.325,6.108-3.384a8.14,8.14,0,0,0,2.592-5.54v-5.24Zm18.588-1.624a.8.8,0,0,0,.792-.812c0-5.52-4.251-8.517-9.237-8.923a8.668,8.668,0,0,0-.65-3A5.556,5.556,0,0,0,10.632.938a2.385,2.385,0,0,0-1.357-.9,1.833,1.833,0,0,0-1.1.116l-2.62,1.15a.737.737,0,0,0-.405.358A.811.811,0,0,0,5.514,2.8c1.009.58,2.3,1.334,2.451,2.639C3.7,6.3,0,9.61,0,14.3a.8.8,0,0,0,.792.812H20.567Z" transform="translate(0 0)" fill="#1ac182"/>
  </g>
</svg>
